<?xml version="1.0" encoding="UTF-8"?>
<svg width="1000px" height="1000px" viewBox="0 0 1000 1000" version="1.1" xmlns="http://www.w3.org/2000/svg" xmlns:xlink="http://www.w3.org/1999/xlink">
    <!-- Generator: Sketch 62 (91390) - https://sketch.com -->
    <title>storyham</title>
    <desc>Created with Sketch.</desc>
    <g id="Page-1" stroke="none" stroke-width="1" fill="none" fill-rule="evenodd">
        <g id="storyham" fill="#888888" fill-rule="nonzero">
            <path d="M0,937.525068 L0,477.953956 C75.5033557,441.188267 162.751678,436.174764 229.865772,476.282788 L424.496644,591.593359 L241.610738,648.413059 C174.496644,673.480575 187.919463,762.052461 263.422819,748.68312 L602.348993,643.399556 L531.879195,294.125511 C516.778523,218.922966 419.463087,250.675151 434.563758,320.864194 L476.510067,506.363807 L280.201342,389.382069 C197.986577,340.918206 97.3154362,332.562368 0,365.985721 L0,65.1755394 C0,30.0810182 26.8456376,0 63.7583893,0 L936.241611,0 C973.154362,0 1000,30.0810182 1000,65.1755394 L1000,937.525068 C1000,970.948421 973.154362,999.358267 936.241611,999.358267 L63.7583893,999.358267 C26.8456376,999.358267 0,970.948421 0,937.525068 Z" id="Fill-1"></path>
        </g>
    </g>
</svg>