<?xml version="1.0" encoding="UTF-8"?>
<svg width="1000px" height="1000px" viewBox="0 0 1000 1000" version="1.1" xmlns="http://www.w3.org/2000/svg" xmlns:xlink="http://www.w3.org/1999/xlink">
    <!-- Generator: Sketch 62 (91390) - https://sketch.com -->
    <title>Fill-1 Copy 3</title>
    <desc>Created with Sketch.</desc>
    <defs>
        <rect id="path-1" x="0" y="0" width="1000" height="1000"></rect>
    </defs>
    <g id="Page-1" stroke="none" stroke-width="1" fill="none" fill-rule="evenodd">
        <g id="Fill-1-Copy-3">
            <mask id="mask-2" fill="white">
                <use xlink:href="#path-1"></use>
            </mask>
            <rect stroke="#888888" stroke-width="0.01" x="0.005" y="0.005" width="999.99" height="999.99"></rect>
            <path d="M150,442.72549 L493.137255,817.235294 L370.588235,451.54902 C299.019608,459.392157 225.490196,460.372549 150,442.72549 Z M150,435.862745 C218.627451,425.078431 297.058824,429 365.686275,435.862745 L292.156863,250.568627 L150,435.862745 Z M299.019608,246.647059 L381.372549,414.294118 L494.117647,229 L299.019608,246.647059 Z M400,453.509804 L500,817.235294 L600,453.509804 C532.352941,462.333333 467.647059,462.333333 400,453.509804 Z M400.980392,435.862745 C458.823529,429 535.294118,428.019608 599.019608,435.862745 L500,230.960784 L400.980392,435.862745 Z M505.882353,229 L618.627451,414.294118 L700.980392,246.647059 L505.882353,229 Z M506.862745,817.235294 L850,442.72549 C774.509804,460.372549 700.980392,459.392157 629.411765,451.54902 L506.862745,817.235294 Z M634.313725,435.862745 C702.941176,429 781.372549,425.078431 850,435.862745 L707.843137,250.568627 L634.313725,435.862745 Z" id="Fill-1" fill="#888888" mask="url(#mask-2)"></path>
        </g>
    </g>
</svg>